<?xml version="1.0" standalone="no"?>
<!DOCTYPE svg PUBLIC "-//W3C//DTD SVG 20010904//EN"
 "http://www.w3.org/TR/2001/REC-SVG-20010904/DTD/svg10.dtd">
<svg version="1.0" xmlns="http://www.w3.org/2000/svg"
 width="842.000000pt" height="842.000000pt" viewBox="0 0 842.000000 842.000000"
 preserveAspectRatio="xMidYMid meet">
<metadata>
Created by potrace 1.14, written by Peter Selinger 2001-2017
</metadata>
<g transform="translate(0.000000,842.000000) scale(0.100000,-0.100000)"
fill="#000000" stroke="none">
<path d="M3344 8401 c-2 -2 -27 -4 -56 -5 -29 -1 -60 -6 -68 -11 -8 -5 -24
-10 -35 -10 -33 -2 -76 -16 -145 -48 -71 -33 -173 -95 -178 -108 -2 -5 -8 -9
-14 -9 -13 0 -158 -147 -158 -161 0 -5 -4 -9 -9 -9 -9 0 -24 -33 -26 -53 0 -4
-4 -11 -10 -15 -20 -14 -33 -48 -24 -64 6 -11 4 -22 -7 -33 -15 -15 -15 -17 1
-29 14 -10 15 -15 5 -21 -9 -5 -11 -4 -6 3 4 7 1 12 -8 12 -10 0 -13 -6 -9
-17 4 -11 3 -14 -5 -9 -8 5 -10 2 -6 -8 3 -9 10 -16 16 -16 5 0 7 4 4 8 -3 5
1 9 9 9 18 0 20 -13 3 -20 -9 -4 -9 -8 -3 -14 12 -10 16 -55 4 -47 -5 3 -9 0
-9 -5 0 -6 5 -11 11 -11 5 0 8 -4 4 -9 -3 -5 -1 -12 4 -16 7 -3 7 -15 1 -30
-6 -16 -6 -27 2 -31 7 -5 8 -3 3 6 -5 9 -4 11 3 6 17 -10 15 -24 -5 -29 -17
-4 -17 -5 0 -6 9 0 17 -4 18 -8 12 -121 154 -262 279 -277 l44 -5 -29 17 c-17
9 -42 23 -56 31 -105 53 -47 250 109 364 86 64 247 98 333 72 35 -11 80 -45
74 -56 -4 -5 2 -9 12 -10 10 0 13 -3 6 -6 -9 -3 -10 -10 -4 -21 13 -25 17 -75
6 -91 -6 -11 -4 -13 10 -7 15 5 16 4 6 -8 -7 -8 -14 -34 -16 -58 -2 -23 -5
-52 -8 -63 -3 -11 -8 -39 -12 -62 -4 -28 -12 -43 -21 -43 -9 0 -12 -5 -9 -10
4 -6 12 -7 18 -3 8 4 8 1 -1 -9 -7 -9 -14 -24 -17 -34 -12 -61 -125 -294 -161
-335 -8 -8 -14 -18 -14 -22 0 -6 -60 -97 -70 -107 -3 -3 -17 -21 -30 -40 -14
-19 -64 -84 -112 -145 -49 -60 -92 -114 -96 -120 -69 -90 -183 -226 -206 -248
-17 -15 -55 -40 -86 -55 -30 -15 -100 -51 -155 -80 -55 -30 -127 -69 -160 -86
-93 -50 -296 -165 -335 -190 -366 -235 -608 -421 -658 -504 -16 -27 -18 -40
-10 -74 14 -62 56 -126 133 -201 62 -62 229 -177 255 -177 21 0 9 -18 -17 -26
-35 -9 -35 -9 -55 -18 -9 -4 -21 -5 -26 -2 -6 3 -12 -3 -15 -13 -7 -29 69 -92
128 -105 l30 -7 -3 -78 c-5 -109 19 -213 70 -298 67 -112 94 -129 115 -75 10
25 11 24 13 -23 1 -27 3 -77 5 -110 2 -33 6 -93 8 -133 3 -40 7 -76 10 -79 9
-9 56 31 54 46 -1 8 4 16 11 18 9 4 11 -3 7 -24 -30 -147 -30 -258 0 -383 4
-14 7 -34 8 -44 4 -36 24 -27 45 21 l21 48 16 -40 c45 -112 94 -177 177 -236
30 -21 76 -116 81 -165 2 -22 -3 -56 -11 -77 -8 -21 -13 -40 -11 -42 8 -8 141
26 201 51 126 53 276 155 351 239 62 69 142 219 150 282 5 36 12 36 48 3 38
-34 180 -106 225 -114 16 -2 31 -5 34 -6 3 -1 8 -2 13 -1 11 2 8 -12 -7 -31
-7 -10 -23 -18 -35 -18 -24 0 -59 -16 -76 -34 -12 -13 -55 -100 -55 -111 0
-18 -76 -184 -102 -222 -28 -42 -36 -73 -19 -73 12 0 -21 -82 -63 -160 -81
-152 -197 -302 -328 -425 -83 -78 -83 -78 -223 -190 -213 -171 -293 -278 -282
-375 9 -73 54 -135 143 -197 53 -36 150 -82 213 -99 62 -17 72 -26 48 -41 -30
-17 -101 -138 -125 -211 -36 -111 -35 -254 2 -367 33 -97 78 -172 146 -245 47
-49 50 -56 34 -65 -32 -17 -101 -89 -117 -120 -45 -91 -36 -229 21 -290 35
-38 113 -71 202 -85 41 -6 93 -15 116 -19 42 -8 154 -6 234 3 43 6 46 4 68
-30 34 -53 108 -83 207 -85 28 -1 58 -5 67 -10 10 -5 57 -11 106 -13 49 -2 94
-6 101 -10 6 -4 11 -4 11 1 0 4 11 8 25 8 14 0 25 -4 25 -8 0 -5 5 -5 12 -1 6
4 50 8 97 9 95 2 190 19 236 42 17 9 44 31 61 50 l31 35 131 3 131 2 38 -34
c21 -19 52 -42 68 -51 44 -24 158 -51 172 -40 7 5 14 5 17 -1 4 -6 22 -9 41
-7 19 1 35 -1 35 -4 0 -4 18 -4 39 0 22 4 44 3 49 -2 6 -6 12 -6 16 1 4 7 15
7 30 1 13 -5 26 -7 27 -5 2 2 31 5 64 8 33 3 78 12 100 20 22 9 67 18 100 20
73 5 133 34 172 82 l29 35 55 -11 c77 -15 190 -20 230 -10 19 5 73 12 120 14
100 6 151 25 191 69 57 65 68 200 23 290 -15 29 -37 64 -50 78 l-23 25 62 68
c59 63 141 201 149 252 2 11 8 29 13 40 15 36 9 225 -10 307 -9 43 -17 81 -17
85 0 4 28 13 62 20 127 26 275 115 374 225 54 60 113 146 137 198 57 125 68
150 71 167 2 10 7 25 10 33 38 103 42 319 8 450 -31 118 -97 234 -182 319 -26
27 -79 71 -83 71 -3 0 -21 11 -41 25 -34 23 -129 63 -168 70 -9 2 -21 6 -26 9
-5 3 -26 8 -47 12 -22 3 -48 7 -60 9 -26 4 -56 -14 -36 -22 6 -2 10 -8 8 -11
-2 -4 7 -8 20 -8 25 -2 54 -20 54 -35 0 -5 -10 -5 -22 -1 -27 9 -39 9 -53 0
-6 -4 -17 -3 -25 2 -8 5 -21 5 -29 0 -9 -4 -32 -10 -51 -13 -64 -10 -184 -64
-200 -90 -8 -14 -8 -17 0 -12 6 4 16 3 23 -2 7 -5 41 -20 77 -33 77 -27 142
-69 190 -123 39 -44 109 -167 109 -194 0 -10 3 -36 6 -57 7 -56 -2 -61 -38
-22 -18 19 -45 40 -61 46 -27 10 -28 9 -21 -12 12 -35 14 -117 3 -157 -12 -43
-64 -115 -97 -133 -20 -11 -25 -10 -35 5 -7 9 -16 14 -19 11 -3 -4 -19 3 -35
15 -17 12 -38 21 -47 21 -13 0 -16 6 -12 21 5 17 3 18 -10 8 -8 -8 -17 -9 -21
-3 -4 5 -19 15 -34 23 -15 8 -24 19 -21 25 3 6 3 8 -2 4 -11 -10 -47 11 -40
22 3 6 -1 7 -9 4 -9 -3 -17 2 -21 15 -3 12 -12 21 -19 21 -7 0 -26 16 -43 35
-17 19 -33 31 -37 28 -3 -4 -6 -1 -6 5 0 6 -18 28 -40 50 -22 21 -40 44 -40
50 0 7 -3 12 -8 12 -4 0 -18 18 -32 40 -14 22 -28 40 -33 40 -4 0 -6 4 -2 9 3
5 1 12 -4 15 -5 4 -22 32 -38 64 -15 31 -30 59 -33 62 -8 8 -30 60 -30 71 0 6
6 7 13 3 7 -4 9 -3 4 2 -5 5 -14 9 -20 9 -7 0 -12 10 -11 22 0 12 -3 20 -7 17
-4 -2 -10 0 -13 5 -4 5 -2 12 3 16 6 3 2 14 -10 26 -16 16 -18 23 -9 35 7 7
10 20 7 29 -4 8 1 19 11 24 9 6 12 11 6 11 -5 0 -15 -5 -22 -12 -7 -7 -12 -8
-12 -2 0 6 9 19 19 28 14 13 20 14 23 5 3 -10 6 -9 10 2 4 11 -1 15 -18 15
-13 0 -21 -2 -19 -5 9 -8 -17 -31 -29 -24 -6 4 -3 -5 7 -20 19 -30 22 -47 7
-47 -5 0 -9 3 -9 8 3 18 -2 32 -17 46 -9 9 -11 16 -4 16 6 0 8 5 5 10 -4 6
-10 8 -14 6 -4 -3 -7 6 -7 20 0 13 6 24 13 24 7 0 13 5 13 11 0 5 -6 7 -12 3
-7 -4 -10 -4 -6 1 4 4 3 16 -3 27 -8 15 -7 24 6 38 13 14 14 20 3 26 -7 4 -10
4 -6 -1 9 -9 -9 -35 -23 -35 -5 0 -9 7 -9 16 0 8 -5 12 -10 9 -6 -4 -9 -3 -8
2 1 4 -2 19 -6 32 -6 16 -4 26 5 33 11 6 9 8 -6 6 -11 -2 -19 2 -18 8 3 18
-43 162 -61 189 -14 21 -20 23 -41 15 -24 -9 -25 -9 -25 38 0 49 12 72 38 72
8 0 51 11 96 25 76 24 84 29 115 75 19 28 37 50 42 50 4 0 13 -23 19 -52 16
-65 62 -167 68 -149 2 7 18 -7 38 -35 18 -26 31 -52 27 -58 -3 -6 -3 -8 1 -4
4 3 31 -20 59 -51 29 -31 72 -72 97 -91 25 -19 47 -37 50 -40 7 -7 46 -29 110
-63 58 -31 209 -82 217 -74 2 3 0 15 -7 27 -15 28 -6 52 54 140 64 94 71 101
91 94 21 -8 87 61 120 126 14 28 25 51 25 52 -1 2 3 14 8 28 10 27 20 29 33 9
11 -18 19 -7 26 33 2 18 8 52 12 75 5 23 7 72 5 108 -2 63 -1 66 15 51 10 -9
25 -16 35 -16 14 0 16 7 11 48 -3 26 -14 79 -26 117 -32 111 -33 113 -15 117
28 6 120 79 147 117 24 33 51 105 52 139 0 9 6 8 23 -3 33 -21 53 -19 64 8 23
52 39 156 37 240 l-2 91 32 8 c35 9 116 85 107 100 -4 6 -17 8 -30 5 -14 -2
-31 3 -43 14 -10 10 -22 15 -25 12 -3 -4 -6 1 -6 9 0 9 -6 18 -14 21 -8 3 -20
16 -26 28 -8 14 -8 19 -1 15 12 -8 83 8 119 26 26 13 29 37 5 40 -10 0 -23 2
-28 2 -6 1 -21 9 -33 18 l-24 16 24 7 c42 14 142 88 201 149 83 86 109 155 82
219 -20 46 -104 132 -230 232 -28 21 -52 42 -55 45 -3 3 -21 17 -40 30 -19 14
-44 33 -55 43 -32 30 -271 187 -283 187 -7 0 -12 3 -12 8 0 4 -10 12 -23 18
-65 32 -182 99 -185 106 -2 4 -10 8 -17 8 -7 0 -42 17 -76 39 -79 47 -209 116
-407 216 -84 42 -164 88 -178 102 -14 14 -72 84 -130 157 -58 72 -111 138
-117 146 -7 8 -23 31 -37 50 -13 19 -27 37 -30 40 -4 3 -22 28 -40 55 -19 28
-37 52 -42 53 -4 2 -8 8 -8 14 0 5 -15 33 -34 61 -18 29 -68 113 -111 187 -42
74 -90 156 -107 182 -17 25 -29 49 -27 52 2 3 -6 13 -18 21 -13 9 -23 20 -23
25 0 9 -19 36 -47 65 -7 8 -13 16 -13 19 0 5 -8 16 -53 69 -10 11 -16 26 -13
33 3 8 -2 11 -14 9 -10 -2 -21 3 -24 11 -4 9 -2 12 5 8 7 -4 6 3 -2 17 -7 13
-12 25 -12 26 4 11 -11 41 -19 37 -5 -3 -4 -12 4 -21 17 -21 19 -43 2 -36 -7
3 -13 8 -12 11 2 22 -3 32 -14 26 -9 -5 -8 -2 1 9 18 23 7 34 -16 16 -14 -10
-16 -10 -6 0 17 20 -5 64 -29 58 -10 -3 -15 -1 -12 5 7 11 -31 50 -40 41 -3
-4 -6 -1 -6 6 0 7 -5 9 -10 6 -6 -4 -9 -1 -8 7 2 8 -8 14 -25 16 -20 2 -27 8
-23 18 3 8 1 14 -4 14 -6 0 -10 -5 -10 -11 0 -5 -5 -7 -10 -4 -6 4 -7 11 -4
17 4 7 2 8 -4 4 -7 -4 -27 10 -49 33 -20 22 -40 38 -44 35 -4 -2 -14 4 -21 14
-7 10 -23 24 -36 31 -12 7 -20 16 -17 22 4 5 3 9 -2 8 -22 -4 -33 3 -33 19 0
14 -2 15 -10 2 -8 -13 -10 -12 -10 3 0 15 -11 22 -33 18 -5 -1 -6 3 -3 8 4 5
1 11 -6 13 -8 3 -6 7 5 11 10 4 16 2 14 -5 -1 -7 3 -12 8 -13 6 0 15 -4 22 -8
6 -4 15 -2 19 5 4 7 4 10 -1 6 -4 -4 -27 9 -51 28 -24 20 -48 33 -54 29 -15
-9 -54 -16 -46 -7 4 4 12 8 17 8 5 1 14 2 19 3 6 0 10 6 10 11 0 6 -6 10 -14
8 -8 -2 -16 2 -17 7 -2 11 -55 37 -76 38 -7 0 -13 3 -13 7 0 6 -112 60 -124
60 -3 0 -17 5 -33 11 -15 6 -29 10 -30 10 -2 0 -21 6 -43 14 -22 8 -40 12 -40
8 0 -3 -7 0 -15 7 -8 7 -15 10 -15 7 0 -2 -27 1 -60 8 -33 7 -74 11 -90 10
-17 -1 -30 2 -30 9 0 7 -3 7 -8 1 -9 -13 -32 -18 -32 -7 0 8 -98 11 -106 3z
m777 -238 c13 -17 13 -17 -5 -3 -18 14 -18 13 -13 -10 4 -14 4 -19 1 -12 -3 6
-13 12 -22 12 -13 0 -12 3 4 15 10 8 20 15 20 15 1 0 8 -8 15 -17z"/>
<path d="M2600 7889 c0 -5 5 -7 10 -4 6 3 10 8 10 11 0 2 -4 4 -10 4 -5 0 -10
-5 -10 -11z"/>
<path d="M2594 7772 c4 -7 1 -12 -6 -12 -8 0 -6 -5 5 -11 10 -6 21 -8 24 -5 4
3 1 6 -6 6 -7 0 -10 4 -6 9 3 5 0 13 -6 17 -8 4 -9 3 -5 -4z"/>
<path d="M2585 7699 c-4 -6 -4 -13 -1 -16 3 -4 6 -1 6 6 0 7 5 9 12 5 7 -4 8
-3 4 4 -9 15 -13 15 -21 1z"/>
<path d="M2613 7574 c0 -9 4 -11 12 -4 7 5 14 9 16 7 2 -1 3 0 1 2 -7 11 -29
7 -29 -5z"/>
<path d="M2615 7541 c-3 -6 0 -8 9 -5 10 4 14 0 12 -13 -4 -23 3 -35 15 -27 6
3 5 12 -3 21 -7 9 -12 19 -10 22 6 10 -16 12 -23 2z"/>
<path d="M2655 7480 c-3 -5 -1 -10 4 -10 6 0 11 5 11 10 0 6 -2 10 -4 10 -3 0
-8 -4 -11 -10z"/>
<path d="M5310 3239 c0 -5 5 -7 10 -4 6 3 10 8 10 11 0 2 -4 4 -10 4 -5 0 -10
-5 -10 -11z"/>
<path d="M5333 3205 c0 -8 4 -12 9 -9 5 3 6 10 3 15 -9 13 -12 11 -12 -6z"/>
<path d="M5379 3208 c-5 -18 -6 -38 -1 -34 7 8 12 36 6 36 -2 0 -4 -1 -5 -2z"/>
<path d="M5270 3196 c0 -2 8 -10 18 -17 15 -13 16 -12 3 4 -13 16 -21 21 -21
13z"/>
<path d="M5415 3160 c3 -5 8 -10 11 -10 2 0 4 5 4 10 0 6 -5 10 -11 10 -5 0
-7 -4 -4 -10z"/>
<path d="M5290 3100 c0 -5 9 -8 20 -7 21 1 18 10 -5 13 -8 1 -15 -2 -15 -6z"/>
<path d="M5315 3061 c-3 -5 -2 -12 3 -15 5 -3 9 1 9 9 0 17 -3 19 -12 6z"/>
<path d="M5290 3040 c0 -6 -5 -8 -12 -4 -9 5 -9 2 1 -9 7 -9 17 -17 22 -17 12
0 11 27 -1 35 -5 3 -10 1 -10 -5z"/>
<path d="M5376 3013 c-6 -14 -5 -15 5 -6 7 7 10 15 7 18 -3 3 -9 -2 -12 -12z"/>
<path d="M5453 2965 c0 -8 4 -12 9 -9 5 3 6 10 3 15 -9 13 -12 11 -12 -6z"/>
<path d="M5348 2963 c6 -2 18 -2 25 0 6 3 1 5 -13 5 -14 0 -19 -2 -12 -5z"/>
<path d="M5556 2935 c-3 -8 0 -15 7 -16 7 -1 1 -4 -13 -8 -14 -5 -31 -3 -39 3
-11 8 -13 8 -7 -1 4 -7 2 -13 -3 -13 -6 0 -11 -4 -11 -9 0 -5 9 -7 20 -4 12 3
20 0 20 -6 0 -7 4 -10 9 -7 5 3 19 -2 31 -12 18 -15 19 -19 7 -19 -9 0 -14 4
-11 9 3 4 0 8 -5 8 -16 0 -13 -15 3 -30 8 -6 12 -19 9 -28 -3 -9 -3 -14 1 -10
4 3 9 14 11 25 2 10 4 19 5 21 2 1 3 8 4 15 1 6 10 11 21 9 18 -2 19 -2 2 8
-9 6 -22 8 -29 4 -7 -4 -8 -3 -4 5 4 6 13 11 19 10 22 -3 37 1 37 9 0 5 -7 9
-15 10 -8 1 -21 3 -29 4 -8 1 -11 9 -8 20 5 22 -23 25 -32 3z"/>
<path d="M5337 2923 c-4 -3 -7 -11 -7 -17 0 -6 5 -5 12 2 6 6 9 14 7 17 -3 3
-9 2 -12 -2z"/>
<path d="M5415 2920 c3 -5 8 -10 11 -10 2 0 4 5 4 10 0 6 -5 10 -11 10 -5 0
-7 -4 -4 -10z"/>
<path d="M5366 2857 c3 -10 9 -15 12 -12 3 3 0 11 -7 18 -10 9 -11 8 -5 -6z"/>
<path d="M5595 2799 c-4 -6 -4 -13 -1 -16 3 -4 6 -1 6 6 0 7 5 9 12 5 7 -4 8
-3 4 4 -9 15 -13 15 -21 1z"/>
</g>
</svg>
